<svg xmlns="http://www.w3.org/2000/svg" width="65.574" height="43.604" viewBox="0 0 65.574 43.604">
  <g id="logo" transform="translate(-1692.846 -1184.846)">
    <path id="Path_4596" data-name="Path 4596" d="M2311.231,1198.1a.444.444,0,0,0,.481.742l9.307-5.986a.089.089,0,0,1,.136.09l-.914,5.267a2.425,2.425,0,0,1-1.175,1.684l-10.367,6a.446.446,0,0,0,.395.8l8.595-4.234a.147.147,0,0,1,.191.206l-7.557,12.806-.113.117-6.837,4.391-14.669-9.991a.326.326,0,0,0-.314-.027l-3.8,1.771a2.017,2.017,0,0,1-2.379-.508l-2.2-2.533a.73.73,0,0,1,.314-1.17l2.713-.916v.007l6.45-2.179a.7.7,0,0,1,.468,0l6.216,2.092a.32.32,0,0,0,.367-.127l3.562-5.554.615-.949.077-.08,21.216-14.9a.316.316,0,0,1,.494.314l-.88,5.042a.614.614,0,0,1-.242.39Z" transform="translate(-564.092 0)" fill="#ffada8"/>
    <path id="Path_4597" data-name="Path 4597" d="M1739.28,1219.971l-12.818,8.234a1.521,1.521,0,0,1-1.658,0l-19.66-12.626-.1-.1-7.572-12.825a.149.149,0,0,1,.194-.207l8.595,4.237a.446.446,0,0,0,.394-.8l-10.367-6a2.425,2.425,0,0,1-1.175-1.683l-.915-5.266a.09.09,0,0,1,.134-.094l9.31,5.988a.444.444,0,0,0,.481-.742l-10.152-7.445a.613.613,0,0,1-.241-.394l-.882-5.039a.316.316,0,0,1,.495-.314l21.219,14.9.072.075,4.312,6.715-2.713.916a.73.73,0,0,0-.314,1.17l2.2,2.533a2.017,2.017,0,0,0,2.379.508l3.8-1.771a.326.326,0,0,1,.314.027Z" transform="translate(0 0)" fill="#45d5c6"/>
  </g>
</svg>
