<svg xmlns="http://www.w3.org/2000/svg" width="15.317" height="15.316" viewBox="0 0 15.317 15.316">
  <g id="search" transform="translate(-137.145 -60.408)">
    <path id="Path_4630" data-name="Path 4630" d="M149.074,71.487c.318.307.628.6.931.9q1.1,1.1,2.2,2.2a.628.628,0,1,1-.874.883q-1.441-1.435-2.875-2.877a2.479,2.479,0,0,1-.207-.277,6.722,6.722,0,0,1-6.031,1.365,6.518,6.518,0,0,1-3.9-2.737,6.741,6.741,0,1,1,10.754.543ZM143.9,72.653a5.5,5.5,0,1,0-5.5-5.489A5.525,5.525,0,0,0,143.9,72.653Z" fill="#16a596"/>
  </g>
</svg>
