<svg xmlns="http://www.w3.org/2000/svg" width="197.556" height="93.618" viewBox="0 0 197.556 93.618">
  <g id="track.img" transform="translate(0 0)">
    <path id="Path_4553" data-name="Path 4553" d="M400.537,86.608h68.588s-6.8-18.661-17.267-18.661-13.744,12.88-13.744,12.88-7.062-7-12.862-7-10.844,9.248-10.844,9.248S406.211,78.1,400.537,86.608Z" transform="translate(-271.568 -67.947)" fill="#ebebeb"/>
    <path id="Path_4554" data-name="Path 4554" d="M367.71,133.538h32.053s-7.163-10.425-12.8-10.425-7.31,6.95-7.31,6.95-3.982-3.243-7.672-2.664S367.71,133.538,367.71,133.538Z" transform="translate(-252.274 -104.453)" fill="#ebebeb" opacity="0.5"/>
    <g id="Group_197" data-name="Group 197" transform="translate(135.382 81.993)">
      <g id="Group_196" data-name="Group 196">
        <g id="Group_195" data-name="Group 195">
          <rect id="Rectangle_447" data-name="Rectangle 447" width="10.308" height="11.625" fill="#ebebeb"/>
          <rect id="Rectangle_448" data-name="Rectangle 448" width="8.385" height="9.899" transform="translate(0.961 0.863)" fill="#dbdbdb"/>
          <rect id="Rectangle_449" data-name="Rectangle 449" width="0.446" height="9.899" transform="translate(4.931 0.863)" fill="#c7c7c7"/>
          <g id="Group_191" data-name="Group 191" transform="translate(10.308)">
            <rect id="Rectangle_450" data-name="Rectangle 450" width="30.14" height="11.625" fill="#dbdbdb"/>
          </g>
          <g id="Group_194" data-name="Group 194" transform="translate(11.239 0.863)">
            <g id="Group_192" data-name="Group 192">
              <rect id="Rectangle_451" data-name="Rectangle 451" width="28.278" height="9.899" fill="#c7c7c7"/>
              <rect id="Rectangle_452" data-name="Rectangle 452" width="28.278" height="9.899" fill="#c7c7c7" opacity="0.1"/>
            </g>
            <g id="Group_193" data-name="Group 193">
              <rect id="Rectangle_453" data-name="Rectangle 453" width="0.445" height="9.899" fill="#a6a6a6"/>
              <rect id="Rectangle_454" data-name="Rectangle 454" width="0.445" height="9.899" transform="translate(0.928)" fill="#a6a6a6"/>
              <rect id="Rectangle_455" data-name="Rectangle 455" width="0.445" height="9.899" transform="translate(1.856)" fill="#a6a6a6"/>
              <rect id="Rectangle_456" data-name="Rectangle 456" width="0.445" height="9.899" transform="translate(2.783)" fill="#a6a6a6"/>
              <rect id="Rectangle_457" data-name="Rectangle 457" width="0.445" height="9.899" transform="translate(3.711)" fill="#a6a6a6"/>
              <rect id="Rectangle_458" data-name="Rectangle 458" width="0.445" height="9.899" transform="translate(4.639)" fill="#a6a6a6"/>
              <rect id="Rectangle_459" data-name="Rectangle 459" width="0.445" height="9.899" transform="translate(5.567)" fill="#a6a6a6"/>
              <rect id="Rectangle_460" data-name="Rectangle 460" width="0.445" height="9.899" transform="translate(6.494)" fill="#a6a6a6"/>
              <rect id="Rectangle_461" data-name="Rectangle 461" width="0.445" height="9.899" transform="translate(7.422)" fill="#a6a6a6"/>
              <rect id="Rectangle_462" data-name="Rectangle 462" width="0.445" height="9.899" transform="translate(8.35)" fill="#a6a6a6"/>
              <rect id="Rectangle_463" data-name="Rectangle 463" width="0.445" height="9.899" transform="translate(9.278)" fill="#a6a6a6"/>
              <rect id="Rectangle_464" data-name="Rectangle 464" width="0.445" height="9.899" transform="translate(10.206)" fill="#a6a6a6"/>
              <rect id="Rectangle_465" data-name="Rectangle 465" width="0.445" height="9.899" transform="translate(11.133)" fill="#a6a6a6"/>
              <rect id="Rectangle_466" data-name="Rectangle 466" width="0.445" height="9.899" transform="translate(12.061)" fill="#a6a6a6"/>
              <rect id="Rectangle_467" data-name="Rectangle 467" width="0.445" height="9.899" transform="translate(12.989)" fill="#a6a6a6"/>
              <rect id="Rectangle_468" data-name="Rectangle 468" width="0.445" height="9.899" transform="translate(13.917)" fill="#a6a6a6"/>
              <rect id="Rectangle_469" data-name="Rectangle 469" width="0.445" height="9.899" transform="translate(14.845)" fill="#a6a6a6"/>
              <rect id="Rectangle_470" data-name="Rectangle 470" width="0.445" height="9.899" transform="translate(15.772)" fill="#a6a6a6"/>
              <rect id="Rectangle_471" data-name="Rectangle 471" width="0.445" height="9.899" transform="translate(16.7)" fill="#a6a6a6"/>
              <rect id="Rectangle_472" data-name="Rectangle 472" width="0.445" height="9.899" transform="translate(17.628)" fill="#a6a6a6"/>
              <rect id="Rectangle_473" data-name="Rectangle 473" width="0.445" height="9.899" transform="translate(18.556)" fill="#a6a6a6"/>
              <rect id="Rectangle_474" data-name="Rectangle 474" width="0.445" height="9.899" transform="translate(19.483)" fill="#a6a6a6"/>
              <rect id="Rectangle_475" data-name="Rectangle 475" width="0.445" height="9.899" transform="translate(20.411)" fill="#a6a6a6"/>
              <rect id="Rectangle_476" data-name="Rectangle 476" width="0.445" height="9.899" transform="translate(21.339)" fill="#a6a6a6"/>
              <rect id="Rectangle_477" data-name="Rectangle 477" width="0.445" height="9.899" transform="translate(22.267)" fill="#a6a6a6"/>
              <rect id="Rectangle_478" data-name="Rectangle 478" width="0.445" height="9.899" transform="translate(23.195)" fill="#a6a6a6"/>
              <rect id="Rectangle_479" data-name="Rectangle 479" width="0.445" height="9.899" transform="translate(24.122)" fill="#a6a6a6"/>
              <rect id="Rectangle_480" data-name="Rectangle 480" width="0.445" height="9.899" transform="translate(25.05)" fill="#a6a6a6"/>
              <rect id="Rectangle_481" data-name="Rectangle 481" width="0.445" height="9.899" transform="translate(25.978)" fill="#a6a6a6"/>
              <rect id="Rectangle_482" data-name="Rectangle 482" width="0.445" height="9.899" transform="translate(26.906)" fill="#a6a6a6"/>
              <rect id="Rectangle_483" data-name="Rectangle 483" width="0.445" height="9.899" transform="translate(27.833)" fill="#a6a6a6"/>
            </g>
          </g>
        </g>
      </g>
    </g>
    <g id="Group_204" data-name="Group 204" transform="translate(149.108 70.369)">
      <g id="Group_203" data-name="Group 203">
        <g id="Group_202" data-name="Group 202">
          <rect id="Rectangle_484" data-name="Rectangle 484" width="10.308" height="11.625" fill="#ebebeb"/>
          <rect id="Rectangle_485" data-name="Rectangle 485" width="8.385" height="9.899" transform="translate(0.961 0.863)" fill="#dbdbdb"/>
          <rect id="Rectangle_486" data-name="Rectangle 486" width="0.446" height="9.899" transform="translate(4.931 0.863)" fill="#c7c7c7"/>
          <g id="Group_198" data-name="Group 198" transform="translate(10.308)">
            <rect id="Rectangle_487" data-name="Rectangle 487" width="30.14" height="11.625" fill="#dbdbdb"/>
          </g>
          <g id="Group_201" data-name="Group 201" transform="translate(11.239 0.863)">
            <g id="Group_199" data-name="Group 199">
              <rect id="Rectangle_488" data-name="Rectangle 488" width="28.278" height="9.899" fill="#c7c7c7"/>
              <rect id="Rectangle_489" data-name="Rectangle 489" width="28.278" height="9.899" fill="#c7c7c7" opacity="0.1"/>
            </g>
            <g id="Group_200" data-name="Group 200">
              <rect id="Rectangle_490" data-name="Rectangle 490" width="0.445" height="9.899" fill="#a6a6a6"/>
              <rect id="Rectangle_491" data-name="Rectangle 491" width="0.445" height="9.899" transform="translate(0.928)" fill="#a6a6a6"/>
              <rect id="Rectangle_492" data-name="Rectangle 492" width="0.445" height="9.899" transform="translate(1.856)" fill="#a6a6a6"/>
              <rect id="Rectangle_493" data-name="Rectangle 493" width="0.445" height="9.899" transform="translate(2.783)" fill="#a6a6a6"/>
              <rect id="Rectangle_494" data-name="Rectangle 494" width="0.445" height="9.899" transform="translate(3.711)" fill="#a6a6a6"/>
              <rect id="Rectangle_495" data-name="Rectangle 495" width="0.445" height="9.899" transform="translate(4.639)" fill="#a6a6a6"/>
              <rect id="Rectangle_496" data-name="Rectangle 496" width="0.445" height="9.899" transform="translate(5.567)" fill="#a6a6a6"/>
              <rect id="Rectangle_497" data-name="Rectangle 497" width="0.445" height="9.899" transform="translate(6.494)" fill="#a6a6a6"/>
              <rect id="Rectangle_498" data-name="Rectangle 498" width="0.445" height="9.899" transform="translate(7.422)" fill="#a6a6a6"/>
              <rect id="Rectangle_499" data-name="Rectangle 499" width="0.445" height="9.899" transform="translate(8.35)" fill="#a6a6a6"/>
              <rect id="Rectangle_500" data-name="Rectangle 500" width="0.445" height="9.899" transform="translate(9.278)" fill="#a6a6a6"/>
              <rect id="Rectangle_501" data-name="Rectangle 501" width="0.445" height="9.899" transform="translate(10.206)" fill="#a6a6a6"/>
              <rect id="Rectangle_502" data-name="Rectangle 502" width="0.445" height="9.899" transform="translate(11.133)" fill="#a6a6a6"/>
              <rect id="Rectangle_503" data-name="Rectangle 503" width="0.445" height="9.899" transform="translate(12.061)" fill="#a6a6a6"/>
              <rect id="Rectangle_504" data-name="Rectangle 504" width="0.445" height="9.899" transform="translate(12.989)" fill="#a6a6a6"/>
              <rect id="Rectangle_505" data-name="Rectangle 505" width="0.445" height="9.899" transform="translate(13.917)" fill="#a6a6a6"/>
              <rect id="Rectangle_506" data-name="Rectangle 506" width="0.445" height="9.899" transform="translate(14.845)" fill="#a6a6a6"/>
              <rect id="Rectangle_507" data-name="Rectangle 507" width="0.445" height="9.899" transform="translate(15.772)" fill="#a6a6a6"/>
              <rect id="Rectangle_508" data-name="Rectangle 508" width="0.445" height="9.899" transform="translate(16.7)" fill="#a6a6a6"/>
              <rect id="Rectangle_509" data-name="Rectangle 509" width="0.445" height="9.899" transform="translate(17.628)" fill="#a6a6a6"/>
              <rect id="Rectangle_510" data-name="Rectangle 510" width="0.445" height="9.899" transform="translate(18.556)" fill="#a6a6a6"/>
              <rect id="Rectangle_511" data-name="Rectangle 511" width="0.445" height="9.899" transform="translate(19.483)" fill="#a6a6a6"/>
              <rect id="Rectangle_512" data-name="Rectangle 512" width="0.445" height="9.899" transform="translate(20.411)" fill="#a6a6a6"/>
              <rect id="Rectangle_513" data-name="Rectangle 513" width="0.445" height="9.899" transform="translate(21.339)" fill="#a6a6a6"/>
              <rect id="Rectangle_514" data-name="Rectangle 514" width="0.445" height="9.899" transform="translate(22.267)" fill="#a6a6a6"/>
              <rect id="Rectangle_515" data-name="Rectangle 515" width="0.445" height="9.899" transform="translate(23.195)" fill="#a6a6a6"/>
              <rect id="Rectangle_516" data-name="Rectangle 516" width="0.445" height="9.899" transform="translate(24.122)" fill="#a6a6a6"/>
              <rect id="Rectangle_517" data-name="Rectangle 517" width="0.445" height="9.899" transform="translate(25.05)" fill="#a6a6a6"/>
              <rect id="Rectangle_518" data-name="Rectangle 518" width="0.445" height="9.899" transform="translate(25.978)" fill="#a6a6a6"/>
              <rect id="Rectangle_519" data-name="Rectangle 519" width="0.445" height="9.899" transform="translate(26.906)" fill="#a6a6a6"/>
              <rect id="Rectangle_520" data-name="Rectangle 520" width="0.445" height="9.899" transform="translate(27.834)" fill="#a6a6a6"/>
            </g>
          </g>
        </g>
      </g>
    </g>
    <g id="Group_211" data-name="Group 211" transform="translate(147.668 81.993)">
      <g id="Group_210" data-name="Group 210">
        <g id="Group_209" data-name="Group 209">
          <rect id="Rectangle_521" data-name="Rectangle 521" width="10.308" height="11.625" fill="#ebebeb"/>
          <rect id="Rectangle_522" data-name="Rectangle 522" width="8.385" height="9.899" transform="translate(0.962 0.863)" fill="#dbdbdb"/>
          <rect id="Rectangle_523" data-name="Rectangle 523" width="0.446" height="9.899" transform="translate(4.931 0.863)" fill="#c7c7c7"/>
          <g id="Group_205" data-name="Group 205" transform="translate(10.308)">
            <rect id="Rectangle_524" data-name="Rectangle 524" width="30.14" height="11.625" fill="#dbdbdb"/>
          </g>
          <g id="Group_208" data-name="Group 208" transform="translate(11.239 0.863)">
            <g id="Group_206" data-name="Group 206">
              <rect id="Rectangle_525" data-name="Rectangle 525" width="28.278" height="9.899" fill="#c7c7c7"/>
              <rect id="Rectangle_526" data-name="Rectangle 526" width="28.278" height="9.899" fill="#c7c7c7" opacity="0.1"/>
            </g>
            <g id="Group_207" data-name="Group 207">
              <rect id="Rectangle_527" data-name="Rectangle 527" width="0.445" height="9.899" fill="#a6a6a6"/>
              <rect id="Rectangle_528" data-name="Rectangle 528" width="0.445" height="9.899" transform="translate(0.928)" fill="#a6a6a6"/>
              <rect id="Rectangle_529" data-name="Rectangle 529" width="0.445" height="9.899" transform="translate(1.856)" fill="#a6a6a6"/>
              <rect id="Rectangle_530" data-name="Rectangle 530" width="0.445" height="9.899" transform="translate(2.783)" fill="#a6a6a6"/>
              <rect id="Rectangle_531" data-name="Rectangle 531" width="0.445" height="9.899" transform="translate(3.711)" fill="#a6a6a6"/>
              <rect id="Rectangle_532" data-name="Rectangle 532" width="0.445" height="9.899" transform="translate(4.639)" fill="#a6a6a6"/>
              <rect id="Rectangle_533" data-name="Rectangle 533" width="0.445" height="9.899" transform="translate(5.567)" fill="#a6a6a6"/>
              <rect id="Rectangle_534" data-name="Rectangle 534" width="0.445" height="9.899" transform="translate(6.494)" fill="#a6a6a6"/>
              <rect id="Rectangle_535" data-name="Rectangle 535" width="0.445" height="9.899" transform="translate(7.422)" fill="#a6a6a6"/>
              <rect id="Rectangle_536" data-name="Rectangle 536" width="0.445" height="9.899" transform="translate(8.35)" fill="#a6a6a6"/>
              <rect id="Rectangle_537" data-name="Rectangle 537" width="0.445" height="9.899" transform="translate(9.278)" fill="#a6a6a6"/>
              <rect id="Rectangle_538" data-name="Rectangle 538" width="0.445" height="9.899" transform="translate(10.206)" fill="#a6a6a6"/>
              <rect id="Rectangle_539" data-name="Rectangle 539" width="0.445" height="9.899" transform="translate(11.133)" fill="#a6a6a6"/>
              <rect id="Rectangle_540" data-name="Rectangle 540" width="0.445" height="9.899" transform="translate(12.061)" fill="#a6a6a6"/>
              <rect id="Rectangle_541" data-name="Rectangle 541" width="0.445" height="9.899" transform="translate(12.989)" fill="#a6a6a6"/>
              <rect id="Rectangle_542" data-name="Rectangle 542" width="0.445" height="9.899" transform="translate(13.917)" fill="#a6a6a6"/>
              <rect id="Rectangle_543" data-name="Rectangle 543" width="0.445" height="9.899" transform="translate(14.845)" fill="#a6a6a6"/>
              <rect id="Rectangle_544" data-name="Rectangle 544" width="0.445" height="9.899" transform="translate(15.772)" fill="#a6a6a6"/>
              <rect id="Rectangle_545" data-name="Rectangle 545" width="0.445" height="9.899" transform="translate(16.7)" fill="#a6a6a6"/>
              <rect id="Rectangle_546" data-name="Rectangle 546" width="0.445" height="9.899" transform="translate(17.628)" fill="#a6a6a6"/>
              <rect id="Rectangle_547" data-name="Rectangle 547" width="0.445" height="9.899" transform="translate(18.556)" fill="#a6a6a6"/>
              <rect id="Rectangle_548" data-name="Rectangle 548" width="0.445" height="9.899" transform="translate(19.483)" fill="#a6a6a6"/>
              <rect id="Rectangle_549" data-name="Rectangle 549" width="0.445" height="9.899" transform="translate(20.411)" fill="#a6a6a6"/>
              <rect id="Rectangle_550" data-name="Rectangle 550" width="0.445" height="9.899" transform="translate(21.339)" fill="#a6a6a6"/>
              <rect id="Rectangle_551" data-name="Rectangle 551" width="0.445" height="9.899" transform="translate(22.267)" fill="#a6a6a6"/>
              <rect id="Rectangle_552" data-name="Rectangle 552" width="0.445" height="9.899" transform="translate(23.195)" fill="#a6a6a6"/>
              <rect id="Rectangle_553" data-name="Rectangle 553" width="0.445" height="9.899" transform="translate(24.122)" fill="#a6a6a6"/>
              <rect id="Rectangle_554" data-name="Rectangle 554" width="0.445" height="9.899" transform="translate(25.05)" fill="#a6a6a6"/>
              <rect id="Rectangle_555" data-name="Rectangle 555" width="0.445" height="9.899" transform="translate(25.978)" fill="#a6a6a6"/>
              <rect id="Rectangle_556" data-name="Rectangle 556" width="0.445" height="9.899" transform="translate(26.906)" fill="#a6a6a6"/>
              <rect id="Rectangle_557" data-name="Rectangle 557" width="0.445" height="9.899" transform="translate(27.834)" fill="#a6a6a6"/>
            </g>
          </g>
        </g>
      </g>
    </g>
    <g id="Group_238" data-name="Group 238" transform="translate(15.097 1.618)">
      <g id="Group_232" data-name="Group 232" transform="translate(0 39.722)">
        <path id="Path_4560" data-name="Path 4560" d="M221.6,163.441c1.373-.617,2.75-1.224,4.137-1.807s2.767-1.183,4.164-1.739l4.182-1.7,4.2-1.641.977-.381-.729.751c-1.078,1.111-2.187,2.192-3.285,3.284s-2.216,2.164-3.341,3.23c1.029-1.159,2.064-2.312,3.122-3.443s2.1-2.275,3.178-3.388l.247.369-4.182,1.695-4.2,1.639c-1.4.556-2.814,1.064-4.221,1.6S223.023,162.945,221.6,163.441Z" transform="translate(-221.601 -156.149)" fill="#263238"/>
        <path id="Path_4561" data-name="Path 4561" d="M272.412,163.429c-1.422-.5-2.839-1-4.248-1.53s-2.823-1.041-4.221-1.6l-4.2-1.64-4.183-1.693.245-.376c1.129,1.113,2.23,2.255,3.338,3.389s2.2,2.285,3.283,3.446c-1.178-1.064-2.349-2.134-3.5-3.226s-2.312-2.171-3.443-3.283l-.8-.784,1.042.408,4.2,1.643,4.181,1.7c1.4.556,2.776,1.161,4.164,1.74S271.039,162.812,272.412,163.429Z" transform="translate(-231.964 -156.136)" fill="#263238"/>
        <g id="Group_231" data-name="Group 231" transform="translate(0 7.292)">
          <rect id="Rectangle_632" data-name="Rectangle 632" width="10.308" height="11.625" fill="#ffc727"/>
          <rect id="Rectangle_633" data-name="Rectangle 633" width="10.308" height="11.625" fill="#fffefd" opacity="0.5"/>
          <rect id="Rectangle_634" data-name="Rectangle 634" width="8.385" height="9.899" transform="translate(0.962 0.863)" fill="#ffc727" opacity="0.5"/>
          <rect id="Rectangle_635" data-name="Rectangle 635" width="0.446" height="9.899" transform="translate(4.931 0.863)" fill="#ffc727" opacity="0.5"/>
          <g id="Group_227" data-name="Group 227" transform="translate(10.308)">
            <rect id="Rectangle_636" data-name="Rectangle 636" width="30.14" height="11.625" fill="#ffc727"/>
            <rect id="Rectangle_637" data-name="Rectangle 637" width="30.14" height="11.625" fill="#fffefd" opacity="0.4"/>
          </g>
          <g id="Group_230" data-name="Group 230" transform="translate(11.239 0.863)">
            <g id="Group_228" data-name="Group 228" opacity="0.7">
              <rect id="Rectangle_638" data-name="Rectangle 638" width="28.278" height="9.899" fill="#ffc727"/>
            </g>
            <g id="Group_229" data-name="Group 229" opacity="0.1">
              <rect id="Rectangle_639" data-name="Rectangle 639" width="0.445" height="9.899"/>
              <rect id="Rectangle_640" data-name="Rectangle 640" width="0.445" height="9.899" transform="translate(0.928)"/>
              <rect id="Rectangle_641" data-name="Rectangle 641" width="0.445" height="9.899" transform="translate(1.856)"/>
              <rect id="Rectangle_642" data-name="Rectangle 642" width="0.445" height="9.899" transform="translate(2.783)"/>
              <rect id="Rectangle_643" data-name="Rectangle 643" width="0.445" height="9.899" transform="translate(3.711)"/>
              <rect id="Rectangle_644" data-name="Rectangle 644" width="0.445" height="9.899" transform="translate(4.639)"/>
              <rect id="Rectangle_645" data-name="Rectangle 645" width="0.445" height="9.899" transform="translate(5.567)"/>
              <rect id="Rectangle_646" data-name="Rectangle 646" width="0.445" height="9.899" transform="translate(6.494)"/>
              <rect id="Rectangle_647" data-name="Rectangle 647" width="0.445" height="9.899" transform="translate(7.422)"/>
              <rect id="Rectangle_648" data-name="Rectangle 648" width="0.445" height="9.899" transform="translate(8.35)"/>
              <rect id="Rectangle_649" data-name="Rectangle 649" width="0.445" height="9.899" transform="translate(9.278)"/>
              <rect id="Rectangle_650" data-name="Rectangle 650" width="0.445" height="9.899" transform="translate(10.206)"/>
              <rect id="Rectangle_651" data-name="Rectangle 651" width="0.445" height="9.899" transform="translate(11.133)"/>
              <rect id="Rectangle_652" data-name="Rectangle 652" width="0.445" height="9.899" transform="translate(12.061)"/>
              <rect id="Rectangle_653" data-name="Rectangle 653" width="0.445" height="9.899" transform="translate(12.989)"/>
              <rect id="Rectangle_654" data-name="Rectangle 654" width="0.445" height="9.899" transform="translate(13.917)"/>
              <rect id="Rectangle_655" data-name="Rectangle 655" width="0.445" height="9.899" transform="translate(14.845)"/>
              <rect id="Rectangle_656" data-name="Rectangle 656" width="0.445" height="9.899" transform="translate(15.772)"/>
              <rect id="Rectangle_657" data-name="Rectangle 657" width="0.445" height="9.899" transform="translate(16.7)"/>
              <rect id="Rectangle_658" data-name="Rectangle 658" width="0.445" height="9.899" transform="translate(17.628)"/>
              <rect id="Rectangle_659" data-name="Rectangle 659" width="0.445" height="9.899" transform="translate(18.556)"/>
              <rect id="Rectangle_660" data-name="Rectangle 660" width="0.445" height="9.899" transform="translate(19.483)"/>
              <rect id="Rectangle_661" data-name="Rectangle 661" width="0.445" height="9.899" transform="translate(20.411)"/>
              <rect id="Rectangle_662" data-name="Rectangle 662" width="0.445" height="9.899" transform="translate(21.339)"/>
              <rect id="Rectangle_663" data-name="Rectangle 663" width="0.445" height="9.899" transform="translate(22.267)"/>
              <rect id="Rectangle_664" data-name="Rectangle 664" width="0.445" height="9.899" transform="translate(23.195)"/>
              <rect id="Rectangle_665" data-name="Rectangle 665" width="0.445" height="9.899" transform="translate(24.122)"/>
              <rect id="Rectangle_666" data-name="Rectangle 666" width="0.445" height="9.899" transform="translate(25.05)"/>
              <rect id="Rectangle_667" data-name="Rectangle 667" width="0.445" height="9.899" transform="translate(25.978)"/>
              <rect id="Rectangle_668" data-name="Rectangle 668" width="0.445" height="9.899" transform="translate(26.906)"/>
              <rect id="Rectangle_669" data-name="Rectangle 669" width="0.445" height="9.899" transform="translate(27.833)"/>
            </g>
          </g>
        </g>
      </g>
      <g id="Group_233" data-name="Group 233" transform="translate(38.165)">
        <path id="Path_4562" data-name="Path 4562" d="M277.754,134.325l-.579-.782,47.595-35.248,21.3,35.132-.832.5L324.49,99.711Z" transform="translate(-277.175 -98.295)" fill="#a6a6a6"/>
        <path id="Path_4563" data-name="Path 4563" d="M350.075,134.168l-7.857-31.484-7.695,30.837-.944-.236,8.639-34.618,8.8,35.265Z" transform="translate(-294.844 -98.412)" fill="#a6a6a6"/>
      </g>
      <g id="Group_234" data-name="Group 234" transform="translate(76.159 29.457)">
        <rect id="Rectangle_670" data-name="Rectangle 670" width="2.426" height="62.541" transform="translate(0)" fill="#c7c7c7"/>
        <rect id="Rectangle_671" data-name="Rectangle 671" width="2.426" height="62.541" transform="translate(16.495)" fill="#c7c7c7"/>
        <rect id="Rectangle_672" data-name="Rectangle 672" width="2.426" height="18.921" transform="translate(18.921 0) rotate(90)" fill="#c7c7c7"/>
        <rect id="Rectangle_673" data-name="Rectangle 673" width="2.426" height="18.921" transform="translate(18.921 32.344) rotate(90)" fill="#c7c7c7"/>
        <rect id="Rectangle_674" data-name="Rectangle 674" width="2.426" height="18.921" transform="translate(18.921 57.006) rotate(90)" fill="#c7c7c7"/>
        <path id="Path_4564" data-name="Path 4564" d="M332.5,174.26v-2.426l18.921-30.646v2.426Z" transform="translate(-332.501 -141.189)" fill="#c7c7c7"/>
      </g>
      <g id="Group_235" data-name="Group 235" transform="translate(97.183 29.457)">
        <rect id="Rectangle_675" data-name="Rectangle 675" width="2.426" height="62.541" transform="translate(0)" fill="#b8bfc2"/>
        <rect id="Rectangle_676" data-name="Rectangle 676" width="2.426" height="62.541" transform="translate(16.495)" fill="#b8bfc2"/>
        <rect id="Rectangle_677" data-name="Rectangle 677" width="2.426" height="18.921" transform="translate(18.921 0) rotate(90)" fill="#a6a6a6"/>
        <rect id="Rectangle_678" data-name="Rectangle 678" width="2.426" height="18.921" transform="translate(18.921 32.344) rotate(90)" fill="#b8bfc2"/>
        <rect id="Rectangle_679" data-name="Rectangle 679" width="2.426" height="18.921" transform="translate(18.921 57.006) rotate(90)" fill="#b8bfc2"/>
        <path id="Path_4565" data-name="Path 4565" d="M363.114,174.26v-2.426l18.921-30.646v2.426Z" transform="translate(-363.114 -141.189)" fill="#b8bfc2"/>
      </g>
      <g id="Group_237" data-name="Group 237" transform="translate(11.31 33.645)">
        <path id="Path_4566" data-name="Path 4566" d="M363.726,150.983H243.568l-5.5-2.911H363.726Z" transform="translate(-238.07 -147.533)" fill="#b8bfc2"/>
        <rect id="Rectangle_680" data-name="Rectangle 680" width="3.989" height="0.539" transform="translate(11.159)" fill="#b8bfc2"/>
        <rect id="Rectangle_681" data-name="Rectangle 681" width="3.989" height="0.539" transform="translate(18.921)" fill="#b8bfc2"/>
        <rect id="Rectangle_682" data-name="Rectangle 682" width="3.989" height="0.539" transform="translate(26.684)" fill="#b8bfc2"/>
        <rect id="Rectangle_683" data-name="Rectangle 683" width="3.989" height="0.539" transform="translate(34.446)" fill="#b8bfc2"/>
        <rect id="Rectangle_684" data-name="Rectangle 684" width="3.989" height="0.539" transform="translate(42.209)" fill="#b8bfc2"/>
        <rect id="Rectangle_685" data-name="Rectangle 685" width="3.989" height="0.539" transform="translate(49.971)" fill="#b8bfc2"/>
        <rect id="Rectangle_686" data-name="Rectangle 686" width="3.989" height="0.539" transform="translate(57.734)" fill="#b8bfc2"/>
        <rect id="Rectangle_687" data-name="Rectangle 687" width="3.989" height="0.539" transform="translate(65.496)" fill="#b8bfc2"/>
        <rect id="Rectangle_688" data-name="Rectangle 688" width="3.989" height="0.539" transform="translate(73.259)" fill="#b8bfc2"/>
        <rect id="Rectangle_689" data-name="Rectangle 689" width="3.989" height="0.539" transform="translate(81.021)" fill="#b8bfc2"/>
        <rect id="Rectangle_690" data-name="Rectangle 690" width="3.989" height="0.539" transform="translate(88.784)" fill="#b8bfc2"/>
        <rect id="Rectangle_691" data-name="Rectangle 691" width="3.989" height="0.539" transform="translate(96.546)" fill="#b8bfc2"/>
        <rect id="Rectangle_692" data-name="Rectangle 692" width="3.989" height="0.539" transform="translate(104.309)" fill="#b8bfc2"/>
        <rect id="Rectangle_693" data-name="Rectangle 693" width="3.989" height="0.539" transform="translate(112.071)" fill="#b8bfc2"/>
        <rect id="Rectangle_694" data-name="Rectangle 694" width="3.989" height="0.539" transform="translate(119.834)" fill="#b8bfc2"/>
        <g id="Group_236" data-name="Group 236" transform="translate(5.46 3.45)">
          <rect id="Rectangle_695" data-name="Rectangle 695" width="6.907" height="1.046" transform="translate(0 1.877)" fill="#a6a6a6"/>
          <rect id="Rectangle_696" data-name="Rectangle 696" width="0.254" height="1.877" transform="translate(2.577)" fill="#a6a6a6"/>
          <rect id="Rectangle_697" data-name="Rectangle 697" width="0.254" height="1.877" transform="translate(4.076)" fill="#a6a6a6"/>
        </g>
      </g>
      <rect id="Rectangle_698" data-name="Rectangle 698" width="28.597" height="7.924" transform="translate(96.32 24.642)" fill="#b8bfc2"/>
    </g>
    <g id="Birds" transform="translate(0 24.053)">
      <g id="Group_363" data-name="Group 363" transform="translate(0 0)">
        <path id="Path_4591" data-name="Path 4591" d="M417.042,165.274a10.1,10.1,0,0,0-1.266-.542,5.307,5.307,0,0,0-1.38-.319,1.184,1.184,0,0,0-.429.047.628.628,0,0,0-.132.063c-.035.022-.056.04-.084.06-.056.04-.1.081-.148.122a6.6,6.6,0,0,0-.5.508c-.311.349-.588.713-.865,1.087l.343-.12a10.455,10.455,0,0,0-1.409-.3,5.843,5.843,0,0,0-.735-.052,2.6,2.6,0,0,0-.392.028,1.426,1.426,0,0,0-.21.051,1.631,1.631,0,0,0-.211.1,2.465,2.465,0,0,0-.556.534,6.779,6.779,0,0,0-.416.589,9.082,9.082,0,0,0-.656,1.257c.3-.363.595-.727.906-1.07.152-.172.308-.342.473-.494a2.289,2.289,0,0,1,.5-.385,1.283,1.283,0,0,1,.552-.054,5.2,5.2,0,0,1,.658.09c.442.079.893.19,1.327.307l.218.06.125-.18c.253-.363.529-.722.8-1.068a6,6,0,0,1,.425-.49c.036-.034.073-.074.108-.1l.05-.043c.006,0,0-.008.021-.014a.7.7,0,0,1,.242-.048,6.737,6.737,0,0,1,1.3.127C416.146,165.1,416.591,165.191,417.042,165.274Z" transform="translate(-264.893 -141.442)" fill="#263238"/>
        <path id="Path_4592" data-name="Path 4592" d="M407.441,184.293a15.266,15.266,0,0,0-1.7-1.166,7.976,7.976,0,0,0-1.935-.87,1.772,1.772,0,0,0-.643-.056.955.955,0,0,0-.212.053c-.057.023-.094.043-.142.065-.095.042-.17.089-.253.135a9.6,9.6,0,0,0-.886.6c-.56.422-1.071.876-1.588,1.345l.539-.077a15.733,15.733,0,0,0-1.984-.847,8.67,8.67,0,0,0-1.066-.29,3.889,3.889,0,0,0-.584-.073,2.1,2.1,0,0,0-.324.014,2.375,2.375,0,0,0-.339.086,3.727,3.727,0,0,0-.973.621,10.209,10.209,0,0,0-.783.744,13.5,13.5,0,0,0-1.331,1.656c.55-.444,1.086-.895,1.643-1.308a10.211,10.211,0,0,1,.839-.588,3.422,3.422,0,0,1,.841-.422,1.913,1.913,0,0,1,.827.082,7.9,7.9,0,0,1,.94.323c.627.246,1.258.539,1.862.839l.3.15.236-.227c.479-.46.988-.908,1.492-1.335a8.923,8.923,0,0,1,.768-.6c.063-.04.129-.087.189-.117l.087-.049c.009,0,.009-.011.034-.014a1.038,1.038,0,0,1,.369,0,10.063,10.063,0,0,1,1.877.567C406.176,183.773,406.8,184.039,407.441,184.293Z" transform="translate(-260.27 -147.011)" fill="#263238"/>
        <path id="Path_4593" data-name="Path 4593" d="M209.054,139.336a10,10,0,0,0-1.16-.742,5.33,5.33,0,0,0-1.31-.54,1.184,1.184,0,0,0-.431-.023.592.592,0,0,0-.14.04c-.038.016-.062.03-.093.046-.062.03-.111.063-.166.1a6.452,6.452,0,0,0-.578.42c-.364.293-.7.607-1.031.931l.358-.062a10.492,10.492,0,0,0-1.341-.523,5.787,5.787,0,0,0-.718-.172,2.618,2.618,0,0,0-.391-.036,1.4,1.4,0,0,0-.216.016,1.5,1.5,0,0,0-.224.064,2.488,2.488,0,0,0-.637.435,7,7,0,0,0-.507.513,9.188,9.188,0,0,0-.852,1.133c.358-.308.705-.62,1.069-.907.179-.146.361-.287.548-.411a2.287,2.287,0,0,1,.552-.3,1.278,1.278,0,0,1,.553.037,5.2,5.2,0,0,1,.635.2c.424.151.851.333,1.26.521l.2.094.153-.157c.309-.317.639-.627.966-.922a5.79,5.79,0,0,1,.5-.414c.042-.028.084-.061.124-.083l.056-.034c.006,0,.006-.008.023-.01a.691.691,0,0,1,.247-.008,6.711,6.711,0,0,1,1.264.339C208.2,139.016,208.622,139.18,209.054,139.336Z" transform="translate(-199.617 -133.175)" fill="#263238"/>
        <path id="Path_4594" data-name="Path 4594" d="M223.33,135.3a15.236,15.236,0,0,0-1.279-1.619,7.943,7.943,0,0,0-1.589-1.406,1.785,1.785,0,0,0-.6-.244.991.991,0,0,0-.218-.012c-.062,0-.1.013-.155.02-.1.012-.189.035-.282.054a9.64,9.64,0,0,0-1.025.31c-.659.237-1.283.519-1.915.813l.538.087a15.709,15.709,0,0,0-1.643-1.4,8.623,8.623,0,0,0-.932-.595,3.95,3.95,0,0,0-.536-.243,2.042,2.042,0,0,0-.313-.083,2.449,2.449,0,0,0-.35-.019,3.719,3.719,0,0,0-1.114.3,10.4,10.4,0,0,0-.968.477,13.6,13.6,0,0,0-1.763,1.187c.658-.261,1.3-.532,1.958-.76a10.139,10.139,0,0,1,.977-.313,3.439,3.439,0,0,1,.928-.153,1.924,1.924,0,0,1,.765.323,7.8,7.8,0,0,1,.8.589c.525.42,1.041.888,1.528,1.354l.244.234.293-.146c.593-.3,1.211-.574,1.821-.832a8.956,8.956,0,0,1,.909-.341c.072-.019.15-.045.216-.056l.1-.021c.009,0,.012-.008.036,0a1.037,1.037,0,0,1,.353.11,10.057,10.057,0,0,1,1.623,1.1C222.276,134.427,222.8,134.866,223.33,135.3Z" transform="translate(-202.616 -130.964)" fill="#263238"/>
        <path id="Path_4595" data-name="Path 4595" d="M430.9,178.467a15.134,15.134,0,0,0-1.279-1.619,7.965,7.965,0,0,0-1.589-1.406,1.784,1.784,0,0,0-.6-.244.953.953,0,0,0-.218-.012c-.062,0-.1.013-.155.02-.1.012-.189.035-.282.054a9.688,9.688,0,0,0-1.024.31c-.659.237-1.283.518-1.915.813l.538.087a15.791,15.791,0,0,0-1.643-1.4,8.711,8.711,0,0,0-.932-.594,3.958,3.958,0,0,0-.536-.243,2.119,2.119,0,0,0-.314-.083,2.427,2.427,0,0,0-.349-.019,3.72,3.72,0,0,0-1.114.3,10.323,10.323,0,0,0-.968.477,13.6,13.6,0,0,0-1.763,1.187c.657-.261,1.3-.532,1.958-.76a10.128,10.128,0,0,1,.977-.313,3.436,3.436,0,0,1,.928-.153,1.926,1.926,0,0,1,.766.323,7.783,7.783,0,0,1,.8.589c.526.42,1.042.888,1.529,1.354l.244.233.293-.146c.593-.3,1.212-.574,1.821-.832a8.964,8.964,0,0,1,.91-.341c.072-.019.15-.045.216-.056l.1-.021c.01,0,.012-.008.037,0a1.036,1.036,0,0,1,.353.11,10.05,10.05,0,0,1,1.623,1.1C429.849,177.595,430.368,178.034,430.9,178.467Z" transform="translate(-267.64 -144.487)" fill="#263238"/>
      </g>
    </g>
  </g>
</svg>
